<?xml version="1.0" standalone="no"?>
<!DOCTYPE svg PUBLIC "-//W3C//DTD SVG 20010904//EN"
 "http://www.w3.org/TR/2001/REC-SVG-20010904/DTD/svg10.dtd">
<svg version="1.0" xmlns="http://www.w3.org/2000/svg"
 width="430.000000pt" height="165.000000pt" viewBox="0 0 430.000000 165.000000"
 preserveAspectRatio="xMidYMid meet">

<g transform="translate(0.000000,165.000000) scale(0.100000,-0.100000)"
fill="#000000" stroke="none">
<path d="M2067 1436 c-111 -32 -212 -118 -264 -225 -25 -50 -28 -67 -28 -161
0 -99 2 -110 32 -171 42 -84 108 -150 191 -191 63 -31 72 -33 177 -33 105 0
113 1 170 32 33 18 68 39 78 46 43 35 -4 52 -51 18 -86 -60 -228 -73 -335 -32
-66 26 -153 104 -185 167 -112 219 23 471 276 515 75 13 149 0 228 -42 40 -21
60 -27 67 -20 16 16 -16 45 -86 77 -74 33 -193 42 -270 20z"/>
<path d="M3685 1436 c-66 -19 -130 -85 -140 -145 -15 -92 38 -182 135 -228 25
-11 83 -31 129 -43 137 -37 207 -107 198 -198 -6 -52 -43 -96 -96 -113 -20 -7
-76 -12 -126 -12 -96 0 -143 14 -201 58 -39 30 -64 32 -64 7 0 -25 36 -57 95
-84 38 -17 74 -23 153 -26 132 -5 183 8 238 64 76 75 69 180 -17 266 -42 42
-58 50 -175 87 -139 44 -188 73 -210 127 -44 106 19 191 151 202 80 6 146 -10
201 -50 41 -29 64 -31 64 -4 0 19 -41 53 -92 76 -61 27 -177 34 -243 16z"/>
<path d="M294 1418 c-5 -7 -10 -178 -12 -380 l-3 -367 24 -6 c46 -12 465 -1
478 12 24 24 -40 33 -246 33 l-204 0 -3 350 c-2 244 -6 352 -14 360 -9 9 -14
8 -20 -2z"/>
<path d="M954 1383 c-4 -26 -3 -158 3 -293 10 -280 14 -294 99 -369 58 -50
122 -71 224 -71 142 0 226 45 285 151 l30 54 3 288 c4 280 3 287 -16 287 -11
0 -23 -7 -26 -16 -3 -9 -6 -131 -6 -272 0 -237 -2 -261 -21 -302 -28 -63 -74
-107 -133 -127 -68 -23 -178 -22 -238 0 -57 22 -123 91 -137 143 -6 22 -11
134 -11 260 0 262 -5 314 -31 314 -14 0 -19 -11 -25 -47z"/>
<path d="M2896 1302 c-149 -297 -297 -616 -292 -628 8 -21 18 -18 77 27 150
113 289 169 416 169 119 0 118 0 174 -111 47 -95 79 -126 79 -78 0 19 -299
647 -342 717 -11 17 -26 32 -34 32 -8 0 -41 -55 -78 -128z m192 -174 l100
-208 -66 0 c-107 0 -197 -24 -314 -83 -60 -30 -108 -53 -108 -51 0 17 275 563
281 557 4 -5 52 -101 107 -215z"/>
<path d="M813 460 c-30 -12 -30 -54 -1 -74 14 -10 44 -16 83 -16 65 0 85 -11
85 -46 0 -34 -20 -43 -100 -46 -97 -4 -90 -23 8 -23 66 0 75 2 92 25 25 32 25
61 0 88 -17 18 -32 22 -80 22 -71 0 -90 6 -90 30 0 24 19 30 101 30 39 0 69 4
69 10 0 12 -136 12 -167 0z"/>
<path d="M1488 453 c-48 -30 -63 -100 -31 -153 54 -92 203 -48 203 60 0 34 -6
48 -34 76 -27 27 -42 34 -72 34 -22 0 -51 -8 -66 -17z m127 -28 c54 -53 12
-155 -63 -155 -80 0 -124 99 -67 155 18 19 35 25 65 25 30 0 47 -6 65 -25z"/>
<path d="M2110 413 c0 -94 9 -123 44 -144 64 -39 157 -11 170 51 9 49 7 156
-3 144 -5 -5 -11 -42 -13 -83 -4 -86 -24 -111 -88 -111 -64 0 -84 25 -88 111
-5 92 -22 117 -22 32z"/>
<path d="M2755 460 c-4 -6 12 -10 39 -10 l46 0 0 -95 c0 -57 4 -95 10 -95 6 0
10 38 10 95 l0 95 40 0 c22 0 40 5 40 10 0 6 -36 10 -89 10 -50 0 -93 -4 -96
-10z"/>
<path d="M3359 439 c-48 -51 -37 -144 20 -174 41 -20 79 -19 119 5 94 58 49
200 -64 200 -39 0 -51 -5 -75 -31z m146 -14 c55 -55 12 -155 -66 -155 -55 0
-89 34 -89 90 0 56 34 90 90 90 30 0 47 -6 65 -25z"/>
</g>
</svg>
